Coordinates
version=1
nRows=17
nColumns=38
inDegrees=no

Units are S.I. units (second, meters, Newtons, ...)
If the header above contains a line with 'inDegrees', this indicates whether rotational values are in degrees (yes) or radians (no).

endheader
time	pelvis_tilt	pelvis_list	pelvis_rotation	pelvis_tx	pelvis_ty	pelvis_tz	hip_flexion_r	hip_adduction_r	hip_rotation_r	knee_angle_r	ankle_angle_r	subtalar_angle_r	mtp_angle_r	hip_flexion_l	hip_adduction_l	hip_rotation_l	knee_angle_l	ankle_angle_l	subtalar_angle_l	mtp_angle_l	lumbar_extension	lumbar_bending	lumbar_rotation	arm_flex_r	arm_add_r	arm_rot_r	elbow_flex_r	pro_sup_r	wrist_flex_r	wrist_dev_r	arm_flex_l	arm_add_l	arm_rot_l	elbow_flex_l	pro_sup_l	wrist_flex_l	wrist_dev_l
0.52	-0.334892	-0.0111444	-0.0992058	0.974992	1.02601	-0.348037	0.70116	0.126896	0.172817	-0.197068	0.164479	0	0	0.221499	0.0458542	-0.0328595	-1.0189	-0.158457	0	0	0.147385	0.0955227	0.00626043	-0.821846	-0.237586	-0.297066	1.93218	1.83001	0	0	-0.469822	-0.21605	0.018011	2.22477	1.75199	0	0
0.53	-0.331601	-0.0149584	-0.0967876	0.974106	1.02013	-0.348293	0.703335	0.134662	0.164162	-0.233312	0.150931	0	0	0.258839	0.0262668	-0.0468204	-1.11457	-0.15691	0	0	0.14055	0.100467	0.0110121	-0.801899	-0.24523	-0.292097	1.92903	1.82869	0	0	-0.469335	-0.214512	0.0198855	2.19655	1.77057	0	0
0.54	-0.333466	-0.0167931	-0.0935493	0.972696	1.01269	-0.348843	0.71627	0.141437	0.157446	-0.287949	0.126482	0	0	0.305389	0.00352283	-0.0641998	-1.21017	-0.153831	0	0	0.13986	0.103809	0.0167486	-0.782416	-0.254138	-0.286831	1.92529	1.82679	0	0	-0.468958	-0.213506	0.0232043	2.16634	1.77918	0	0
0.55	-0.338527	-0.0176525	-0.0900594	0.970884	1.0041	-0.349546	0.738912	0.149417	0.155673	-0.362265	0.106003	0	0	0.357936	-0.0250764	-0.0861398	-1.30388	-0.146343	0	0	0.142989	0.106308	0.0236852	-0.761702	-0.264431	-0.280824	1.91948	1.82323	0	0	-0.468786	-0.212815	0.0269789	2.1336	1.79348	0	0
0.56	-0.343985	-0.0185581	-0.0878711	0.968731	0.994873	-0.350103	0.768299	0.161542	0.160129	-0.454594	0.112384	0	0	0.411909	-0.0601882	-0.111191	-1.39364	-0.13021	0	0	0.14609	0.108896	0.0335144	-0.738664	-0.275705	-0.273809	1.91062	1.81635	0	0	-0.467891	-0.212508	0.0312135	2.0973	1.8136	0	0
0.57	-0.348411	-0.0212883	-0.0885482	0.9662	0.98554	-0.350228	0.798834	0.179558	0.166846	-0.554775	0.150472	0	0	0.465647	-0.10253	-0.136596	-1.47882	-0.107054	0	0	0.146858	0.113766	0.0479684	-0.712447	-0.287125	-0.26662	1.89752	1.8102	0	0	-0.465324	-0.212191	0.0363681	2.05531	1.82699	0	0
0.58	-0.347551	-0.0252171	-0.0912905	0.963372	0.976879	-0.349987	0.821679	0.200111	0.17259	-0.65299	0.208534	0	0	0.514675	-0.148664	-0.159582	-1.55751	-0.080672	0	0	0.139472	0.119393	0.0656165	-0.679888	-0.298437	-0.25762	1.87859	1.79689	0	0	-0.460343	-0.210848	0.0386417	2.00749	1.86003	0	0
0.59	-0.340625	-0.0295705	-0.0924544	0.960402	0.969553	-0.349708	0.828688	0.216635	0.173831	-0.734562	0.26577	0	0	0.561703	-0.177195	-0.161283	-1.62787	-0.0579051	0	0	0.123493	0.123983	0.0820373	-0.638811	-0.309186	-0.246345	1.85204	1.79405	0	0	-0.453023	-0.208309	0.0401022	1.95305	1.87161	0	0
0.6	-0.332471	-0.0333964	-0.0914118	0.957345	0.963459	-0.349513	0.824295	0.227049	0.170586	-0.799295	0.321155	0	0	0.612362	-0.195136	-0.152142	-1.69092	-0.0369782	0	0	0.105649	0.12647	0.0941479	-0.588267	-0.320992	-0.228093	1.81622	1.78566	0	0	-0.446586	-0.202937	0.0369094	1.8924	1.92119	0	0
0.61	-0.325636	-0.0357852	-0.0905093	0.954799	0.958562	-0.349248	0.806283	0.232748	0.168621	-0.839443	0.363901	0	0	0.664483	-0.199787	-0.135507	-1.73938	-0.0201111	0	0	0.0907951	0.127382	0.106061	-0.535702	-0.332995	-0.206357	1.77842	1.78488	0	0	-0.44254	-0.196844	0.0360852	1.83182	1.93619	0	0
0.62	-0.321105	-0.0376564	-0.0898225	0.952776	0.954852	-0.34893	0.780253	0.236457	0.16876	-0.863148	0.400015	0	0	0.717333	-0.199522	-0.117983	-1.77401	-0.0048791	0	0	0.080019	0.127943	0.118974	-0.484376	-0.344843	-0.182806	1.7439	1.78603	0	0	-0.441469	-0.190801	0.0361005	1.77458	1.94201	0	0
0.63	-0.317941	-0.0404021	-0.0864219	0.951165	0.952834	-0.348857	0.746926	0.237676	0.167893	-0.873154	0.44136	0	0	0.772055	-0.193074	-0.0960297	-1.79882	0.0117476	0	0	0.0719401	0.129159	0.12906	-0.433171	-0.355464	-0.157499	1.71483	1.79918	0	0	-0.443659	-0.184738	0.0349573	1.72029	1.94646	0	0
0.64	-0.31592	-0.0403707	-0.0832281	0.950001	0.952278	-0.349008	0.707822	0.235769	0.171562	-0.871051	0.471874	0	0	0.822891	-0.186458	-0.0816809	-1.8084	0.0242373	0	0	0.0663926	0.127559	0.143311	-0.39135	-0.362741	-0.138232	1.70296	1.80612	0	0	-0.449679	-0.18209	0.0336165	1.6831	1.93804	0	0
0.65	-0.314879	-0.0376214	-0.079576	0.949233	0.953241	-0.349437	0.664442	0.229644	0.177684	-0.858924	0.491918	0	0	0.868868	-0.17766	-0.0732514	-1.80325	0.0324123	0	0	0.063322	0.122558	0.160076	-0.358672	-0.366422	-0.126185	1.70858	1.81044	0	0	-0.460724	-0.182751	0.0310674	1.66614	1.92563	0	0
0.66	-0.313577	-0.0320779	-0.0750795	0.949189	0.95585	-0.350095	0.613241	0.218131	0.185286	-0.83416	0.506711	0	0	0.909117	-0.162916	-0.0679273	-1.78547	0.039985	0	0	0.0619564	0.113551	0.176671	-0.33389	-0.365425	-0.120931	1.73055	1.81569	0	0	-0.478001	-0.185797	0.0283238	1.66955	1.90026	0	0
0.67	-0.312491	-0.0253592	-0.0703057	0.949994	0.959794	-0.350738	0.556582	0.203824	0.193382	-0.799209	0.511172	0	0	0.94231	-0.145302	-0.0650673	-1.75464	0.0483088	0	0	0.0631938	0.102438	0.192914	-0.316167	-0.360552	-0.121395	1.76472	1.82364	0	0	-0.500609	-0.190848	0.027066	1.68956	1.84736	0	0
0.68	-0.311953	-0.0190375	-0.0648247	0.951606	0.964817	-0.351248	0.496647	0.188783	0.200424	-0.756559	0.503063	0	0	0.9689	-0.129009	-0.0646105	-1.71214	0.058713	0	0	0.0672396	0.0911123	0.207311	-0.303291	-0.352903	-0.12464	1.80599	1.835	0	0	-0.526879	-0.196705	0.0251976	1.71999	1.78846	0	0
